<svg xmlns="http://www.w3.org/2000/svg" width="15" height="15" viewBox="0 0 15 15">
    <g fill="none" fillRule="nonzero">
        <path fill="#FCBD00" d="M7.493 4.294h6.695A7.442 7.442 0 0 1 6.952 14.87l-.704-4.214"/>
        <path fill="#16A663" d="M9.703 8.701c.1-.12.351.506.432.374l.034-.057-3.216 5.851a7.443 7.443 0 0 1-5.605-11.7l3.335 5.79"/>
        <path fill="#FD9F37" d="M14.188 4.294L7.942 5.958l-.374-2.562z"/>
        <path fill="#ED402D" d="M14.188 4.294H7.491c-.05 0-.1 0-.151.002L4.49 8.538c.055.146.12.287.193.421l-.216-.375L1.348 3.17a7.444 7.444 0 0 1 12.84 1.125z"/>
        <circle cx="7.442" cy="7.442" r="2.95" fill="#4192CF"/>
        <path fill="#12945A" d="M6.953 14.87l1.003-4.888 2.179-.907z"/>
        <path fill="#E1382A" d="M5.084 6.463L4.49 8.538l-.024.046L1.348 3.17z"/>
        <path fill="#FFF" d="M7.442 10.61a3.171 3.171 0 0 1-3.167-3.168 3.171 3.171 0 0 1 3.167-3.167 3.171 3.171 0 0 1 3.168 3.167 3.171 3.171 0 0 1-3.168 3.168zm0-5.661A2.496 2.496 0 0 0 4.95 7.442a2.496 2.496 0 0 0 2.493 2.494 2.496 2.496 0 0 0 2.494-2.494A2.496 2.496 0 0 0 7.442 4.95z"/>
    </g>
</svg>
